P3 
4 4
255
0 0 0 227 073 026 0 0 0 202 191 130 
0 0 0 227 073 026 0 0 0 202 191 130 
065 030 172 0 0 0 065 184 220 0 0 0 
065 030 172 0 0 0 065 184 220 0 0 0 
